<svg xmlns="http://www.w3.org/2000/svg" viewBox="0 0 1920 1920">
  <defs>
    <clipPath id="logo">
      <rect x="0" y="0" width="1920" height="1920" />
    </clipPath>
  </defs>
  <g clip-path="url(#logo)">
          <rect fill="#ffffff" width="1920" height="1920"/>
    <g transform="scale(4.8)">
      <g fill="none" font-family="none" font-size="none" font-weight="none" stroke-linecap="none" stroke-miterlimit="10" stroke-width="none" style="mix-blend-mode:normal" text-anchor="none">
<rect fill="none" height="400" stroke-linecap="butt" stroke-width="1" width="400"/>
<rect fill="none" height="400" stroke-linecap="butt" stroke-width="1" width="400"/>
<rect fill="none" height="400" stroke-linecap="butt" stroke-width="1" width="400"/>
<g id="symbol" stroke-width="0">
<g id="logo-symbol">
<g fill="#2783ec" id="stroke" stroke-linecap="butt">
<g id="stroke">
<path d="m202.31 200.02v45.022c0 1.2751-1.0337 2.3088-2.3088 2.3088s-2.3088-1.0337-2.3088-2.3088v-45.022c0-1.2751 1.0337-2.3088 2.3088-2.3088s2.3088 1.0337 2.3088 2.3088z" id="stroke"/>
</g>
</g>
<path d="m188.46 188.48h23.088v23.088h-23.088z" fill="none" stroke-linecap="round"/>
<g fill="#2783ec" id="stroke" stroke-linecap="round">
<path d="m200 278.52-10.39-18.471h20.779z" id="stroke"/>
</g>
<g fill="#2783ec" id="stroke" stroke-linecap="butt">
<path d="m197.69 245.04v-21.934c0-1.2751 1.0337-2.3088 2.3088-2.3088s2.3088 1.0337 2.3088 2.3088v21.934c0 1.2751-1.0337 2.3088-2.3088 2.3088s-2.3088-1.0337-2.3088-2.3088z" id="stroke"/>
<path d="m171.98 243.26 26.551-21.934c0.98308-0.8121 2.4384-0.67351 3.2505 0.30956 0.8121 0.98308 0.67351 2.4384-0.30956 3.2505l-26.551 21.934c-0.98308 0.8121-2.4384 0.67351-3.2505-0.30956-0.8121-0.98308-0.67351-2.4384 0.30956-3.2505z" id="stroke"/>
<path d="m225.08 246.82-26.551-21.934c-0.98308-0.8121-1.1217-2.2674-0.30956-3.2505 0.8121-0.98308 2.2674-1.1217 3.2505-0.30956l26.551 21.934c0.98308 0.8121 1.1217 2.2674 0.30956 3.2505-0.8121 0.98308-2.2674 1.1217-3.2505 0.30956z" id="stroke"/>
</g>
<g fill="#2783ec" id="stroke" stroke-linecap="round">
<path d="m205.77 245.04c0 3.1878-2.5842 5.7721-5.7721 5.7721s-5.7721-2.5842-5.7721-5.7721 2.5842-5.7721 5.7721-5.7721 5.7721 2.5842 5.7721 5.7721z" id="stroke"/>
</g>
<g fill="#2783ec" id="stroke" stroke-linecap="butt">
<path d="m166.53 230.22 15.51-15.51c0.90165-0.90165 2.3635-0.90165 3.2652 0s0.90165 2.3635 0 3.2652l-15.51 15.51c-0.90165 0.90165-2.3635 0.90165-3.2652 0s-0.90165-2.3635 0-3.2652z" id="stroke"/>
<path d="m149.61 210.78 34.284 3.2652c1.2694 0.12089 2.2004 1.2479 2.0795 2.5173-0.12089 1.2694-1.2479 2.2004-2.5173 2.0795l-34.284-3.2652c-1.2694-0.12089-2.2004-1.2479-2.0795-2.5173 0.12089-1.2694 1.2479-2.2004 2.5173-2.0795z" id="stroke"/>
<path d="m184.64 250.85-3.2652-34.284c-0.12089-1.2694 0.81014-2.3964 2.0795-2.5173s2.3964 0.81014 2.5173 2.0795l3.2652 34.284c0.12089 1.2694-0.81014 2.3964-2.0795 2.5173s-2.3964-0.81014-2.5173-2.0795z" id="stroke"/>
</g>
<g fill="#2783ec" id="stroke" stroke-linecap="round">
<path d="m172.25 235.94c-2.2541 2.2541-5.9088 2.2541-8.1629 0s-2.2541-5.9088 0-8.1629 5.9088-2.2541 8.1629 0 2.2541 5.9088 0 8.1629z" id="stroke"/>
</g>
<g fill="#2783ec" id="stroke" stroke-linecap="butt">
<path d="m169.8 166.55 15.51 15.51c0.90165 0.90165 0.90165 2.3635 0 3.2652s-2.3635 0.90165-3.2652 0l-15.51-15.51c-0.90165-0.90165-0.90165-2.3635 0-3.2652s2.3635-0.90165 3.2652 0z" id="stroke"/>
<path d="m189.24 149.63-3.2652 34.284c-0.12089 1.2694-1.2479 2.2004-2.5173 2.0795-1.2694-0.12089-2.2004-1.2479-2.0795-2.5173l3.2652-34.284c0.12089-1.2694 1.2479-2.2004 2.5173-2.0795 1.2694 0.12089 2.2004 1.2479 2.0795 2.5173z" id="stroke"/>
<path d="m149.17 184.66 34.284-3.2652c1.2694-0.12089 2.3964 0.81014 2.5173 2.0795s-0.81014 2.3964-2.0795 2.5173l-34.284 3.2652c-1.2694 0.12089-2.3964-0.81014-2.5173-2.0795s0.81014-2.3964 2.0795-2.5173z" id="stroke"/>
</g>
<g fill="#2783ec" id="stroke" stroke-linecap="round">
<path d="m164.08 172.27c-2.2541-2.2541-2.2541-5.9088 0-8.1629s5.9088-2.2541 8.1629 0 2.2541 5.9088 0 8.1629-5.9088 2.2541-8.1629 0z" id="stroke"/>
</g>
<g fill="#2783ec" id="stroke" stroke-linecap="butt">
<path d="m197.69 200.02v-45.022c0-1.2751 1.0337-2.3088 2.3088-2.3088s2.3088 1.0337 2.3088 2.3088v45.022c0 1.2751-1.0337 2.3088-2.3088 2.3088s-2.3088-1.0337-2.3088-2.3088z" id="stroke"/>
</g>
<g fill="#2783ec" id="stroke" stroke-linecap="round">
<path d="m200 121.52 10.39 18.471h-20.779z" id="stroke"/>
</g>
<g fill="#2783ec" id="stroke" stroke-linecap="butt">
<path d="m202.31 155v21.934c0 1.2751-1.0337 2.3088-2.3088 2.3088s-2.3088-1.0337-2.3088-2.3088v-21.934c0-1.2751 1.0337-2.3088 2.3088-2.3088s2.3088 1.0337 2.3088 2.3088z" id="stroke"/>
<path d="m228.02 156.78-26.551 21.934c-0.98308 0.8121-2.4384 0.67351-3.2505-0.30956-0.8121-0.98308-0.67351-2.4384 0.30956-3.2505l26.551-21.934c0.98308-0.8121 2.4384-0.67351 3.2505 0.30956 0.8121 0.98308 0.67351 2.4384-0.30956 3.2505z" id="stroke"/>
<path d="m174.92 153.22 26.551 21.934c0.98308 0.8121 1.1217 2.2674 0.30956 3.2505-0.8121 0.98308-2.2674 1.1217-3.2505 0.30956l-26.551-21.934c-0.98308-0.8121-1.1217-2.2674-0.30956-3.2505 0.8121-0.98308 2.2674-1.1217 3.2505-0.30956z" id="stroke"/>
</g>
<g fill="#2783ec" id="stroke" stroke-linecap="round">
<path d="m194.23 155c0-3.1878 2.5842-5.7721 5.7721-5.7721s5.7721 2.5842 5.7721 5.7721-2.5842 5.7721-5.7721 5.7721-5.7721-2.5842-5.7721-5.7721z" id="stroke"/>
</g>
<g fill="#2783ec" id="stroke" stroke-linecap="butt">
<path d="m233.47 169.82-15.51 15.51c-0.90165 0.90165-2.3635 0.90165-3.2652 0s-0.90165-2.3635 0-3.2652l15.51-15.51c0.90165-0.90165 2.3635-0.90165 3.2652 0s0.90165 2.3635 0 3.2652z" id="stroke"/>
<path d="m250.39 189.26-34.284-3.2652c-1.2694-0.12089-2.2004-1.2479-2.0795-2.5173 0.12089-1.2694 1.2479-2.2004 2.5173-2.0795l34.284 3.2652c1.2694 0.12089 2.2004 1.2479 2.0795 2.5173-0.12089 1.2694-1.2479 2.2004-2.5173 2.0795z" id="stroke"/>
<path d="m215.36 149.19 3.2652 34.284c0.12089 1.2694-0.81014 2.3964-2.0795 2.5173s-2.3964-0.81014-2.5173-2.0795l-3.2652-34.284c-0.12089-1.2694 0.81014-2.3964 2.0795-2.5173s2.3964 0.81014 2.5173 2.0795z" id="stroke"/>
</g>
<g fill="#2783ec" id="stroke" stroke-linecap="round">
<path d="m227.75 164.1c2.2541-2.2541 5.9088-2.2541 8.1629 0s2.2541 5.9088 0 8.1629-5.9088 2.2541-8.1629 0-2.2541-5.9088 0-8.1629z" id="stroke"/>
</g>
<g fill="#2783ec" id="stroke" stroke-linecap="butt">
<path d="m230.2 233.49-15.51-15.51c-0.90165-0.90165-0.90165-2.3635 0-3.2652s2.3635-0.90165 3.2652 0l15.51 15.51c0.90165 0.90165 0.90165 2.3635 0 3.2652s-2.3635 0.90165-3.2652 0z" id="stroke"/>
<path d="m210.76 250.41 3.2652-34.284c0.12089-1.2694 1.2479-2.2004 2.5173-2.0795 1.2694 0.12089 2.2004 1.2479 2.0795 2.5173l-3.2652 34.284c-0.12089 1.2694-1.2479 2.2004-2.5173 2.0795-1.2694-0.12089-2.2004-1.2479-2.0795-2.5173z" id="stroke"/>
<path d="m250.83 215.38-34.284 3.2652c-1.2694 0.12089-2.3964-0.81014-2.5173-2.0795s0.81014-2.3964 2.0795-2.5173l34.284-3.2652c1.2694-0.12089 2.3964 0.81014 2.5173 2.0795s-0.81014 2.3964-2.0795 2.5173z" id="stroke"/>
</g>
<g fill="#2783ec" id="stroke" stroke-linecap="round">
<path d="m235.92 227.78c2.2541 2.2541 2.2541 5.9088 0 8.1629s-5.9088 2.2541-8.1629 0-2.2541-5.9088 0-8.1629 5.9088-2.2541 8.1629 0z" id="stroke"/>
</g>
<g fill="#fff" id="fill" stroke-linecap="round">
<path d="m188.46 188.48h23.088v23.088h-23.088z" id="fill"/>
</g>
<g fill="#2783ec" id="stroke" stroke-linecap="butt">
<path d="m213.85 186.17v27.706h-27.706v-27.706zm-23.088 23.088h18.471v-18.471h-18.471z" id="stroke"/>
</g>
</g>
</g>
<g fill="#2783ec" id="text" stroke-linecap="butt" stroke-width="1">
<path d="m121.5 111.4h4.0326c0.04733 0.4733 0.27452 0.86142 0.68156 1.1643 0.40704 0.29345 0.92294 0.44017 1.5477 0.44017 0.5585 0 1.0034-0.13726 1.3347-0.41178 0.32185-0.27452 0.48277-0.6153 0.48277-1.0223 0-0.67209-0.5159-1.1312-1.5477-1.3773l-1.8601-0.44017c-0.62476-0.13253-1.1738-0.30292-1.6471-0.51117-0.48277-0.20825-0.96554-0.4875-1.4483-0.83775-0.4733-0.35025-0.84248-0.81408-1.1075-1.3915-0.25558-0.57743-0.38338-1.2448-0.38338-2.0021 0-1.4956 0.56323-2.7215 1.6897-3.6776 1.1265-0.94661 2.5606-1.4199 4.3023-1.4199 1.7607 0 3.1853 0.42597 4.2739 1.2779 1.0981 0.85195 1.6897 2.0399 1.7749 3.564h-4.0468c-0.0568-0.45437-0.26978-0.80462-0.63896-1.0507-0.35971-0.24612-0.81408-0.36918-1.3631-0.36918-0.52064 0-0.95134 0.13726-1.2921 0.41178-0.35025 0.27452-0.52537 0.61056-0.52537 1.0081 0 0.70049 0.56797 1.1738 1.7039 1.4199l1.6897 0.35498c0.65316 0.14199 1.2211 0.31238 1.7039 0.51117 0.49224 0.19879 0.97501 0.4733 1.4483 0.82355s0.83775 0.80935 1.0933 1.3773c0.25558 0.57743 0.38338 1.2543 0.38338 2.0305 0 1.5808-0.5585 2.8398-1.6755 3.777s-2.5606 1.4057-4.3307 1.4057c-1.7323 0-3.1853-0.45437-4.3591-1.3631s-1.8128-2.1393-1.9169-3.6918zm16.23 4.8277v-16.088h5.1685c2.3476 0 4.1604 0.70996 5.4383 2.1299 1.2779 1.4294 1.9169 3.3983 1.9169 5.9068 0 2.518-0.63896 4.4869-1.9169 5.9068-1.2779 1.4294-3.0907 2.1441-5.4383 2.1441zm4.0326-12.637v9.1868h0.83775c1.1265 0 1.9926-0.40704 2.5984-1.2211 0.59636-0.81408 0.89455-1.9406 0.89455-3.3794 0-1.4294-0.29818-2.5511-0.89455-3.3652-0.60583-0.81408-1.472-1.2211-2.5984-1.2211zm28.185 12.637v-16.088h5.1543c2.3476 0 4.1651 0.70996 5.4525 2.1299 1.2779 1.4294 1.9169 3.3983 1.9169 5.9068 0 2.518-0.63896 4.4869-1.9169 5.9068-1.2874 1.4294-3.1049 2.1441-5.4525 2.1441zm4.0184-12.637v9.1868h0.85195c1.1265 0 1.9879-0.40704 2.5842-1.2211 0.60583-0.81408 0.90875-1.9406 0.90875-3.3794 0-1.4294-0.30292-2.5511-0.90875-3.3652-0.59636-0.81408-1.4578-1.2211-2.5842-1.2211zm23.187 9.2578v3.3794h-10.195v-3.3794h3.0954v-9.3288h-3.0954v-3.3794h10.195v3.3794h-3.0812v9.3288zm13.248-2.6126h-2.5842v-3.0528h6.5458v2.3287c0 2.0825-0.5443 3.7722-1.6329 5.0691-1.0791 1.2969-2.5274 1.9453-4.3449 1.9453-2.0825 0-3.7012-0.74782-4.8561-2.2435-1.1643-1.4956-1.7465-3.5309-1.7465-6.1056 0-2.4801 0.60583-4.4917 1.8175-6.0346 1.2117-1.5335 2.802-2.3003 4.7709-2.3003 1.7228 0 3.1002 0.53957 4.132 1.6187 1.0413 1.0791 1.6045 2.3902 1.6897 3.9332h-3.99c-0.07573-0.5301-0.27925-1.0081-0.61056-1.4341-0.33131-0.41651-0.76202-0.62476-1.2921-0.62476-0.72889 0-1.3252 0.40704-1.7891 1.2211-0.46384 0.81408-0.69576 2.021-0.69576 3.6208 0 1.5714 0.23192 2.7736 0.69576 3.6066 0.46384 0.83302 1.0981 1.2495 1.9027 1.2495 0.60583 0 1.0886-0.27452 1.4483-0.82355 0.35971-0.53957 0.53957-1.1738 0.53957-1.9027zm18.97 2.6126v3.3794h-10.195v-3.3794h3.0812v-9.3288h-3.0812v-3.3794h10.195v3.3794h-3.0954v9.3288zm4.8561-9.2436v-3.4646h12.296v3.4646h-4.1462v12.623h-4.0184v-12.623zm24.423-3.4646 4.6999 16.088h-4.1746l-0.66736-2.8398h-4.0468l-0.65316 2.8398h-4.2172l4.6857-16.088zm-0.93715 9.911-1.2353-5.2111-1.2353 5.2111zm10.138-9.911h4.0184v12.609h6.631v3.4788h-10.649z"/>
<path d="m129.44 295.07h4.0326c0.04733 0.4733 0.27452 0.86142 0.68156 1.1643 0.40704 0.29345 0.92294 0.44017 1.5477 0.44017 0.5585 0 1.0034-0.13726 1.3347-0.41178 0.32185-0.27452 0.48277-0.6153 0.48277-1.0223 0-0.67209-0.5159-1.1312-1.5477-1.3773l-1.8601-0.44017c-0.62476-0.13253-1.1738-0.30292-1.6471-0.51117-0.48277-0.20825-0.96554-0.4875-1.4483-0.83775-0.4733-0.35025-0.84248-0.81408-1.1075-1.3915-0.25558-0.57743-0.38338-1.2448-0.38338-2.0021 0-1.4956 0.56323-2.7215 1.6897-3.6776 1.1265-0.94661 2.5606-1.4199 4.3023-1.4199 1.7607 0 3.1853 0.42597 4.2739 1.2779 1.0981 0.85195 1.6897 2.0399 1.7749 3.564h-4.0468c-0.0568-0.45437-0.26978-0.80462-0.63896-1.0507-0.35971-0.24612-0.81408-0.36918-1.3631-0.36918-0.52064 0-0.95134 0.13726-1.2921 0.41178-0.35025 0.27452-0.52537 0.61056-0.52537 1.0081 0 0.70049 0.56797 1.1738 1.7039 1.4199l1.6897 0.35498c0.65316 0.14199 1.2211 0.31238 1.7039 0.51117 0.49224 0.19879 0.97501 0.4733 1.4483 0.82355s0.83775 0.80935 1.0933 1.3773c0.25558 0.57743 0.38338 1.2543 0.38338 2.0305 0 1.5808-0.5585 2.8398-1.6755 3.777s-2.5606 1.4057-4.3307 1.4057c-1.7323 0-3.1853-0.45437-4.3591-1.3631s-1.8128-2.1393-1.9169-3.6918zm17.508-9.3288c1.1927-1.4767 2.7736-2.2151 4.7425-2.2151 1.9595 0 3.5356 0.73836 4.7283 2.2151 1.1833 1.4672 1.7749 3.5025 1.7749 6.1056 0 2.6126-0.59163 4.6526-1.7749 6.1198-1.1927 1.4672-2.7688 2.2009-4.7283 2.2009-1.969 0-3.5498-0.73362-4.7425-2.2009-1.1833-1.4672-1.7749-3.5072-1.7749-6.1198 0-2.6032 0.59163-4.6384 1.7749-6.1056zm2.3854 6.1056c0 3.1711 0.78569 4.7567 2.3571 4.7567 1.5619 0 2.3429-1.5856 2.3429-4.7567 0-3.1617-0.78095-4.7425-2.3429-4.7425-1.5714 0-2.3571 1.5808-2.3571 4.7425zm13.731-8.0367h4.0184v12.609h6.631v3.4788h-10.649zm14.597 10.28v-10.28h4.0184v10.209c0 0.73836 0.19879 1.3536 0.59636 1.8459 0.39758 0.49224 0.93714 0.73836 1.6187 0.73836s1.2211-0.24612 1.6187-0.73836c0.39758-0.49224 0.59636-1.1075 0.59636-1.8459v-10.209h4.0184v10.28c0 1.95-0.58217 3.4504-1.7465 4.5011s-2.66 1.5761-4.4869 1.5761-3.3226-0.52537-4.4869-1.5761-1.7465-2.5511-1.7465-4.5011zm16.187-6.8156v-3.4646h12.296v3.4646h-4.132v12.623h-4.0184v-12.623zm27.348 9.2436v3.3794h-10.195v-3.3794h3.0954v-9.3288h-3.0954v-3.3794h10.195v3.3794h-3.0812v9.3288zm6.276-10.777c1.1927-1.4767 2.7736-2.2151 4.7425-2.2151 1.9595 0 3.5356 0.73836 4.7283 2.2151 1.1833 1.4672 1.7749 3.5025 1.7749 6.1056 0 2.6126-0.59163 4.6526-1.7749 6.1198-1.1927 1.4672-2.7688 2.2009-4.7283 2.2009-1.969 0-3.5498-0.73362-4.7425-2.2009-1.1833-1.4672-1.7749-3.5072-1.7749-6.1198 0-2.6032 0.59163-4.6384 1.7749-6.1056zm2.3854 6.1056c0 3.1711 0.78569 4.7567 2.3571 4.7567 1.5619 0 2.3429-1.5856 2.3429-4.7567 0-3.1617-0.78095-4.7425-2.3429-4.7425-1.5714 0-2.3571 1.5808-2.3571 4.7425zm16.599-8.0367 4.3023 8.9597v-8.9597h3.564v16.088h-3.8338l-4.6147-9.7832v9.7832h-3.5782v-16.088zm11.814 11.26h4.0468c0.04733 0.4733 0.26978 0.86142 0.66736 1.1643 0.40704 0.29345 0.92294 0.44017 1.5477 0.44017 0.56797 0 1.0129-0.13726 1.3347-0.41178 0.33131-0.27452 0.49697-0.6153 0.49697-1.0223 0-0.67209-0.52064-1.1312-1.5619-1.3773l-1.8459-0.44017c-0.62476-0.13253-1.1785-0.30292-1.6613-0.51117-0.4733-0.20825-0.95134-0.4875-1.4341-0.83775s-0.85195-0.81408-1.1075-1.3915c-0.26505-0.57743-0.39758-1.2448-0.39758-2.0021 0-1.4956 0.56797-2.7215 1.7039-3.6776 1.1265-0.94661 2.5558-1.4199 4.2881-1.4199 1.7702 0 3.1995 0.42597 4.2881 1.2779s1.6802 2.0399 1.7749 3.564h-4.0468c-0.06626-0.45437-0.27925-0.80462-0.63896-1.0507-0.36918-0.24612-0.82828-0.36918-1.3773-0.36918-0.52064 0-0.95134 0.13726-1.2921 0.41178s-0.51117 0.61056-0.51117 1.0081c0 0.70049 0.56323 1.1738 1.6897 1.4199l1.6897 0.35498c0.65316 0.14199 1.2259 0.31238 1.7181 0.51117 0.48277 0.19879 0.96081 0.4733 1.4341 0.82355s0.84248 0.80935 1.1075 1.3773c0.25558 0.57743 0.38338 1.2543 0.38338 2.0305 0 1.5808-0.5585 2.8398-1.6755 3.777-1.1265 0.93714-2.57 1.4057-4.3307 1.4057-1.7418 0-3.1995-0.45437-4.3733-1.3631s-1.8128-2.1393-1.9169-3.6918z"/>
</g>
</g>
    </g>
  </g>
</svg>