<svg width="754" height="962" viewBox="0 0 754 962" fill="none" xmlns="http://www.w3.org/2000/svg">
<path d="M388 541.153V700.131C388 704.634 383.058 708.284 376.962 708.284C370.866 708.284 365.923 704.634 365.923 700.131V541.153C365.923 536.65 370.866 533 376.962 533C383.058 533 388 536.65 388 541.153Z" fill="#2783EC"/>
<path d="M377 857.896L327.128 769.235H426.867L377 857.896Z" fill="#2783EC"/>
<path d="M365.912 697.192V591.909C365.912 585.788 370.874 580.827 376.994 580.827C383.115 580.827 388.076 585.788 388.076 591.909V697.192C388.076 703.313 383.115 708.274 376.994 708.274C370.874 708.274 365.912 703.313 365.912 697.192Z" fill="#2783EC"/>
<path d="M242.504 688.648L369.949 583.365C374.668 579.467 381.653 580.132 385.551 584.851C389.449 589.57 388.784 596.555 384.065 600.453L256.621 705.736C251.902 709.635 244.916 708.969 241.018 704.251C237.12 699.532 237.785 692.546 242.504 688.648Z" fill="#2783EC"/>
<path d="M497.384 705.736L369.939 600.453C365.22 596.555 364.555 589.569 368.453 584.85C372.351 580.132 379.337 579.466 384.056 583.365L511.5 688.648C516.219 692.546 516.885 699.531 512.986 704.25C509.088 708.969 502.103 709.634 497.384 705.736Z" fill="#2783EC"/>
<path d="M404.696 697.192C404.696 712.494 392.292 724.898 376.99 724.898C361.688 724.898 349.284 712.494 349.284 697.192C349.284 681.89 361.688 669.486 376.99 669.486C392.292 669.486 404.696 681.89 404.696 697.192Z" fill="#2783EC"/>
<path d="M216.344 626.056L290.792 551.608C295.12 547.28 302.137 547.28 306.465 551.608C310.793 555.936 310.793 562.953 306.465 567.281L232.017 641.729C227.689 646.057 220.672 646.057 216.344 641.729C212.016 637.401 212.016 630.384 216.344 626.056Z" fill="#2783EC"/>
<path d="M135.128 532.744L299.691 548.417C305.784 548.997 310.253 554.407 309.673 560.5C309.092 566.593 303.683 571.062 297.59 570.482L133.026 554.809C126.933 554.228 122.465 548.819 123.045 542.726C123.625 536.633 129.035 532.164 135.128 532.744Z" fill="#2783EC"/>
<path d="M303.272 725.08L287.599 560.517C287.019 554.424 291.488 549.014 297.58 548.434C303.673 547.853 309.083 552.322 309.664 558.415L325.336 722.979C325.917 729.072 321.448 734.481 315.355 735.062C309.262 735.642 303.852 731.173 303.272 725.08Z" fill="#2783EC"/>
<path d="M243.8 653.512C232.98 664.332 215.438 664.332 204.618 653.512C193.798 642.693 193.798 625.15 204.618 614.33C215.438 603.511 232.98 603.511 243.8 614.33C254.62 625.15 254.62 642.693 243.8 653.512Z" fill="#2783EC"/>
<path d="M232.04 320.44L306.488 394.888C310.816 399.216 310.816 406.233 306.488 410.561C302.16 414.889 295.143 414.889 290.815 410.561L216.367 336.113C212.039 331.785 212.039 324.768 216.367 320.44C220.695 316.112 227.712 316.112 232.04 320.44Z" fill="#2783EC"/>
<path d="M325.352 239.224L309.679 403.787C309.099 409.88 303.689 414.349 297.596 413.769C291.503 413.189 287.034 407.779 287.614 401.686L303.287 237.123C303.868 231.029 309.277 226.561 315.37 227.141C321.464 227.721 325.932 233.131 325.352 239.224Z" fill="#2783EC"/>
<path d="M133.016 407.368L297.579 391.695C303.672 391.115 309.082 395.584 309.662 401.677C310.242 407.77 305.774 413.179 299.681 413.76L135.117 429.433C129.024 430.013 123.615 425.544 123.034 419.451C122.454 413.358 126.923 407.948 133.016 407.368Z" fill="#2783EC"/>
<path d="M204.584 347.896C193.764 337.077 193.764 319.534 204.584 308.714C215.404 297.895 232.946 297.895 243.766 308.714C254.586 319.534 254.586 337.077 243.766 347.896C232.946 358.716 215.404 358.716 204.584 347.896Z" fill="#2783EC"/>
<path d="M365.912 420.856V262.052C365.912 257.554 370.856 253.908 376.956 253.908C383.055 253.908 388 257.554 388 262.052V420.856C388 425.354 383.055 429 376.956 429C370.856 429 365.912 425.354 365.912 420.856Z" fill="#2783EC"/>
<path d="M377 104.296L426.872 192.957H327.133L377 104.296Z" fill="#2783EC"/>
<path d="M388.088 265V370.283C388.088 376.404 383.126 381.366 377.006 381.366C370.885 381.366 365.923 376.404 365.923 370.283V265C365.923 258.88 370.885 253.918 377.006 253.918C383.126 253.918 388.088 258.88 388.088 265Z" fill="#2783EC"/>
<path d="M511.496 273.544L384.051 378.827C379.332 382.725 372.347 382.06 368.449 377.341C364.551 372.623 365.216 365.637 369.935 361.739L497.379 256.456C502.098 252.558 509.084 253.223 512.982 257.942C516.88 262.66 516.215 269.646 511.496 273.544Z" fill="#2783EC"/>
<path d="M256.616 256.456L384.061 361.739C388.779 365.637 389.445 372.623 385.547 377.342C381.649 382.061 374.663 382.726 369.944 378.828L242.499 273.544C237.781 269.646 237.115 262.661 241.014 257.942C244.912 253.223 251.897 252.558 256.616 256.456Z" fill="#2783EC"/>
<path d="M349.304 265C349.304 249.699 361.708 237.294 377.01 237.294C392.312 237.294 404.716 249.698 404.716 265C404.716 280.302 392.312 292.706 377.01 292.706C361.708 292.706 349.304 280.302 349.304 265Z" fill="#2783EC"/>
<path d="M537.656 336.136L463.208 410.584C458.88 414.912 451.863 414.912 447.535 410.584C443.207 406.256 443.207 399.239 447.535 394.911L521.983 320.463C526.311 316.135 533.328 316.135 537.656 320.463C541.984 324.791 541.984 331.808 537.656 336.136Z" fill="#2783EC"/>
<path d="M618.872 429.448L454.309 413.775C448.216 413.195 443.747 407.785 444.327 401.692C444.907 395.599 450.317 391.13 456.41 391.71L620.973 407.383C627.066 407.964 631.535 413.373 630.955 419.466C630.375 425.559 624.965 430.028 618.872 429.448Z" fill="#2783EC"/>
<path d="M450.728 237.112L466.401 401.675C466.981 407.768 462.512 413.178 456.419 413.758C450.326 414.339 444.917 409.87 444.336 403.777L428.663 239.214C428.083 233.12 432.552 227.711 438.645 227.131C444.738 226.55 450.148 231.019 450.728 237.112Z" fill="#2783EC"/>
<path d="M510.2 308.68C521.02 297.861 538.562 297.861 549.382 308.68C560.202 319.5 560.202 337.042 549.382 347.862C538.562 358.682 521.02 358.682 510.2 347.862C499.38 337.042 499.38 319.5 510.2 308.68Z" fill="#2783EC"/>
<path d="M521.96 641.752L447.512 567.304C443.184 562.976 443.184 555.959 447.512 551.631C451.84 547.303 458.857 547.303 463.185 551.631L537.633 626.079C541.961 630.407 541.961 637.424 537.633 641.752C533.305 646.08 526.288 646.08 521.96 641.752Z" fill="#2783EC"/>
<path d="M428.648 722.968L444.321 558.405C444.901 552.312 450.311 547.843 456.404 548.423C462.497 549.004 466.966 554.413 466.385 560.507L450.713 725.07C450.132 731.163 444.723 735.632 438.629 735.051C432.536 734.471 428.068 729.061 428.648 722.968Z" fill="#2783EC"/>
<path d="M620.984 554.824L456.421 570.497C450.328 571.078 444.918 566.609 444.338 560.516C443.757 554.423 448.226 549.013 454.319 548.433L618.882 532.76C624.976 532.179 630.385 536.648 630.966 542.741C631.546 548.834 627.077 554.244 620.984 554.824Z" fill="#2783EC"/>
<path d="M549.416 614.344C560.236 625.164 560.236 642.707 549.416 653.526C538.596 664.346 521.054 664.346 510.234 653.526C499.414 642.707 499.414 625.164 510.234 614.344C521.054 603.525 538.596 603.525 549.416 614.344Z" fill="#2783EC"/>
<path d="M443.48 414.616V547.605H310.491V414.616H443.48ZM332.658 525.439H421.318V436.778H332.658V525.439Z" fill="#2783EC"/>
<path d="M0.199951 55.7201H19.5564C19.7836 57.992 20.8741 59.8549 22.8279 61.3088C24.7817 62.7173 27.2581 63.4216 30.2569 63.4216C32.9377 63.4216 35.0732 62.7627 36.6634 61.445C38.2083 60.1273 38.9807 58.4916 38.9807 56.538C38.9807 53.3119 36.5044 51.1082 31.5518 49.927L22.6233 47.8141C19.6245 47.178 16.9891 46.3601 14.7172 45.3605C12.3999 44.3609 10.0826 43.0205 7.76539 41.3393C5.49355 39.6581 3.72146 37.4317 2.44937 34.6601C1.22258 31.8884 0.609155 28.6851 0.609155 25.05C0.609155 17.8711 3.31265 11.9868 8.7197 7.39756C14.1269 2.85383 21.0106 0.582043 29.3707 0.582043C37.8221 0.582043 44.6602 2.6267 49.8855 6.71597C55.1564 10.8053 57.996 16.5075 58.405 23.8231H38.9804C38.7077 21.6422 37.6854 19.961 35.9134 18.7798C34.1867 17.5984 32.0057 17.0077 29.3704 17.0077C26.8714 17.0077 24.804 17.6666 23.1684 18.9843C21.4872 20.3019 20.6466 21.915 20.6466 23.8231C20.6466 27.1855 23.3729 29.4574 28.8253 30.6387L36.9359 32.3426C40.0711 33.0241 42.7972 33.842 45.1146 34.7962C47.4774 35.7504 49.7947 37.068 52.0665 38.7492C54.3383 40.4304 56.0876 42.6341 57.3143 45.3603C58.5411 48.1319 59.1545 51.3809 59.1545 55.1067C59.1545 62.6945 56.4737 68.7377 51.1121 73.2363C45.7505 77.7348 38.8212 79.9836 30.3248 79.9836C22.0097 79.9836 15.0353 77.8026 9.40107 73.4407C3.76683 69.0788 0.699631 63.1721 0.199951 55.7201V55.7201ZM78.1039 78.8931V1.67068H102.913C114.181 1.67068 122.883 5.07848 129.017 11.8942C135.151 18.7553 138.218 28.206 138.218 40.2468C138.218 52.3332 135.151 61.7839 129.017 68.5995C122.883 75.4606 114.181 78.8912 102.913 78.8912L78.1039 78.8931ZM97.4605 18.2355V62.3321H101.482C106.889 62.3321 111.046 60.3783 113.954 56.4708C116.816 52.5632 118.248 47.156 118.248 40.2497C118.248 33.3886 116.817 28.0044 113.954 24.0967C111.046 20.1892 106.888 18.2355 101.482 18.2355H97.4605ZM232.748 78.8931V1.67068H257.489C268.758 1.67068 277.482 5.07848 283.661 11.8942C289.795 18.7553 292.862 28.206 292.862 40.2468C292.862 52.3332 289.795 61.7839 283.661 68.5995C277.482 75.4606 268.758 78.8912 257.489 78.8912L232.748 78.8931ZM252.037 18.2355V62.3321H256.126C261.533 62.3321 265.668 60.3783 268.53 56.4708C271.438 52.5632 272.892 47.156 272.892 40.2497C272.892 33.3886 271.438 28.0044 268.53 24.0967C265.668 20.1892 261.533 18.2355 256.126 18.2355H252.037ZM363.334 62.6729V78.894H314.398V62.6729H329.256V17.8947H314.398V1.67354H363.334V17.8947H348.545V62.6729H363.334ZM426.925 50.1324H414.521V35.479H445.94V46.6568C445.94 56.6528 443.328 64.7633 438.103 70.9884C432.923 77.2136 425.971 80.3259 417.247 80.3259C407.251 80.3259 399.481 76.7363 393.938 69.5571C388.349 62.3782 385.555 52.6088 385.555 40.2502C385.555 28.3457 388.463 18.69 394.279 11.2841C400.095 3.92332 407.728 0.242676 417.179 0.242676C425.448 0.242676 432.06 2.8326 437.012 8.01243C442.011 13.1921 444.714 19.4854 445.123 26.8918H425.971C425.608 24.3473 424.631 22.0529 423.04 20.0081C421.45 18.0089 419.383 17.0093 416.838 17.0093C413.34 17.0093 410.477 18.9631 408.251 22.8706C406.024 26.7781 404.911 32.5713 404.911 40.2504C404.911 47.7931 406.024 53.5637 408.251 57.5621C410.477 61.5605 413.521 63.5597 417.384 63.5597C420.291 63.5597 422.609 62.242 424.335 59.6066C426.062 57.0167 426.925 53.9724 426.925 50.4737L426.925 50.1324ZM517.981 62.6729V78.894H469.045V62.6729H483.835V17.8947H469.045V1.67354H517.981V17.8947H503.123V62.6729H517.981ZM541.29 18.3036V1.67354H600.311V18.3036H580.409V78.894H561.121V18.3036H541.29ZM658.52 1.67354L681.08 78.896H661.042L657.839 65.2649H638.414L635.279 78.896H615.036L637.528 1.67354H658.52ZM654.022 49.2464L648.093 24.2331L642.163 49.2464H654.022ZM702.685 1.67354H721.973V62.1967H753.802V78.895H702.686L702.685 1.67354Z" fill="#2783EC"/>
<path d="M38.312 937.336H57.6685C57.8956 939.608 58.9862 941.471 60.94 942.925C62.8938 944.333 65.3701 945.037 68.3689 945.037C71.0497 945.037 73.1852 944.379 74.7755 943.061C76.3204 941.743 77.0928 940.107 77.0928 938.154C77.0928 934.928 74.6165 932.724 69.6638 931.543L60.7353 929.43C57.7365 928.794 55.1011 927.976 52.8293 926.976C50.512 925.977 48.1947 924.636 45.8774 922.955C43.6056 921.274 41.8335 919.048 40.5614 916.276C39.3346 913.504 38.7212 910.301 38.7212 906.666C38.7212 899.487 41.4247 893.603 46.8318 889.013C52.239 884.47 59.1226 882.198 67.4828 882.198C75.9341 882.198 82.7723 884.243 87.9975 888.332C93.2684 892.421 96.1081 898.123 96.5171 905.439H77.0924C76.8198 903.258 75.7975 901.577 74.0254 900.396C72.2988 899.214 70.1178 898.624 67.4825 898.624C64.9835 898.624 62.916 899.282 61.2804 900.6C59.5992 901.918 58.7587 903.531 58.7587 905.439C58.7587 908.801 61.4849 911.073 66.9374 912.255L75.0479 913.958C78.1831 914.64 80.9092 915.458 83.2267 916.412C85.5894 917.366 87.9067 918.684 90.1785 920.365C92.4503 922.046 94.1997 924.25 95.4263 926.976C96.6531 929.748 97.2665 932.997 97.2665 936.723C97.2665 944.31 94.5858 950.354 89.2242 954.852C83.8626 959.351 76.9333 961.6 68.4368 961.6C60.1218 961.6 53.1474 959.419 47.5131 955.057C41.8789 950.695 38.8117 944.788 38.312 937.336V937.336ZM122.35 892.558C128.075 885.47 135.664 881.925 145.114 881.925C154.52 881.925 162.085 885.469 167.81 892.558C173.49 899.6 176.33 909.37 176.33 921.865C176.33 934.405 173.49 944.197 167.81 951.24C162.085 958.282 154.52 961.804 145.114 961.804C135.663 961.804 128.075 958.283 122.35 951.24C116.671 944.197 113.831 934.405 113.831 921.865C113.831 909.369 116.671 899.6 122.35 892.558ZM133.8 921.865C133.8 937.086 137.572 944.697 145.114 944.697C152.612 944.697 156.36 937.086 156.36 921.865C156.36 906.688 152.612 899.101 145.114 899.101C137.572 899.101 133.8 906.688 133.8 921.865V921.865ZM199.709 883.288H218.997V943.812H250.826V960.51H199.711L199.709 883.288ZM269.775 932.632V883.288H289.063V932.292C289.063 935.836 290.017 938.789 291.926 941.152C293.834 943.515 296.424 944.696 299.695 944.696C302.967 944.696 305.557 943.515 307.465 941.152C309.373 938.789 310.328 935.836 310.328 932.292V883.288H329.616V932.632C329.616 941.992 326.822 949.194 321.233 954.238C315.644 959.281 308.465 961.803 299.696 961.803C290.926 961.803 283.747 959.281 278.158 954.238C272.57 949.194 269.775 941.992 269.775 932.632H269.775ZM347.472 899.918V883.288H406.493V899.918H386.66V960.508H367.371V899.918H347.472ZM478.743 944.287V960.508H429.807V944.287H444.665V899.509H429.807V883.288H478.743V899.509H463.953V944.287H478.743ZM508.867 892.557C514.592 885.469 522.181 881.925 531.632 881.925C541.037 881.925 548.602 885.469 554.327 892.557C560.007 899.6 562.847 909.369 562.847 921.864C562.847 934.405 560.007 944.197 554.327 951.239C548.602 958.282 541.037 961.803 531.632 961.803C522.18 961.803 514.592 958.282 508.867 951.239C503.188 944.197 500.348 934.405 500.348 921.864C500.348 909.369 503.188 899.6 508.867 892.557ZM520.317 921.864C520.317 937.085 524.089 944.696 531.632 944.696C539.129 944.696 542.877 937.085 542.877 921.864C542.877 906.688 539.129 899.1 531.632 899.1C524.089 899.1 520.317 906.688 520.317 921.864ZM599.993 883.288L620.644 926.295V883.288H637.751V960.51H619.349L597.198 913.551V960.51H580.023V883.288H599.993ZM656.7 937.336H676.124C676.352 939.608 677.419 941.471 679.328 942.925C681.282 944.333 683.758 945.037 686.757 945.037C689.483 945.037 691.619 944.379 693.163 943.061C694.754 941.743 695.549 940.107 695.549 938.154C695.549 934.928 693.05 932.724 688.052 931.543L679.191 929.43C676.193 928.794 673.534 927.976 671.217 926.976C668.945 925.977 666.651 924.636 664.333 922.955C662.016 921.274 660.244 919.048 659.017 916.276C657.745 913.504 657.109 910.301 657.109 906.666C657.109 899.487 659.835 893.603 665.288 889.013C670.695 884.47 677.556 882.198 685.871 882.198C694.368 882.198 701.228 884.243 706.453 888.332C711.679 892.421 714.518 898.123 714.973 905.439H695.548C695.23 903.258 694.208 901.577 692.481 900.396C690.709 899.214 688.506 898.624 685.87 898.624C683.371 898.624 681.304 899.282 679.668 900.6C678.033 901.918 677.215 903.531 677.215 905.439C677.215 908.801 679.918 911.073 685.325 912.255L693.436 913.958C696.571 914.64 699.32 915.458 701.683 916.412C704 917.366 706.295 918.684 708.566 920.365C710.838 922.046 712.61 924.25 713.882 926.976C715.109 929.748 715.723 932.997 715.723 936.723C715.723 944.31 713.042 950.354 707.68 954.852C702.273 959.35 695.344 961.6 686.893 961.6C678.532 961.6 671.535 959.419 665.901 955.057C660.267 950.695 657.2 944.788 656.7 937.336V937.336Z" fill="#2783EC"/>
</svg>
